<?xml version="1.0" standalone="no"?>
<!DOCTYPE svg PUBLIC "-//W3C//DTD SVG 20010904//EN"
 "http://www.w3.org/TR/2001/REC-SVG-20010904/DTD/svg10.dtd">
<svg version="1.0" xmlns="http://www.w3.org/2000/svg"
 width="2048.000000pt" height="769.000000pt" viewBox="0 0 2048.000000 769.000000"
 preserveAspectRatio="xMidYMid meet">

<g transform="translate(0.000000,769.000000) scale(0.100000,-0.100000)"
fill="#000000" stroke="none">
<path d="M2895 7655 c-67 -30 -151 -107 -181 -168 l-26 -50 29 7 c62 16 162
102 210 184 14 24 24 44 22 46 -2 2 -26 -6 -54 -19z"/>
<path d="M4750 7672 c0 -15 61 -98 102 -141 42 -42 130 -95 149 -89 15 5 -29
83 -72 127 -53 54 -179 127 -179 103z"/>
<path d="M2645 7594 c-86 -41 -197 -159 -220 -233 -7 -23 -6 -23 41 -16 32 4
59 16 77 33 51 48 150 213 136 227 -3 2 -18 -3 -34 -11z"/>
<path d="M5049 7534 c24 -44 63 -102 87 -130 37 -44 50 -53 90 -59 25 -3 48
-4 51 -2 10 10 -36 93 -76 139 -43 48 -128 110 -170 123 -23 7 -22 4 18 -71z"/>
<path d="M3000 7532 c-36 -9 -87 -30 -113 -46 -69 -39 -52 -51 71 -50 83 2
108 6 177 33 44 17 88 38 98 45 17 13 13 15 -33 25 -69 15 -123 13 -200 -7z"/>
<path d="M4490 7538 l-44 -10 38 -23 c70 -42 171 -68 267 -69 51 -1 92 4 99
10 17 17 -61 62 -147 85 -82 21 -142 23 -213 7z"/>
<path d="M2343 7457 c-33 -25 -75 -64 -95 -88 -57 -71 -57 -70 9 -63 32 4 65
11 75 15 15 8 83 167 75 176 -2 2 -31 -16 -64 -40z"/>
<path d="M5300 7475 c0 -27 54 -146 70 -154 22 -12 130 -23 130 -13 0 14 -92
112 -138 147 -49 38 -62 42 -62 20z"/>
<path d="M2705 7270 c-621 -109 -1160 -203 -1197 -210 l-68 -12 0 -1682 c0
-1117 4 -1710 11 -1766 70 -570 404 -1092 1004 -1573 316 -253 648 -458 1123
-694 l273 -135 262 129 c670 332 1145 661 1518 1052 314 328 511 681 601 1076
l22 100 3 1747 3 1746 -27 6 c-66 13 -2390 416 -2394 415 -2 -1 -512 -90
-1134 -199z m1865 -84 c393 -69 897 -157 1118 -195 222 -39 408 -71 413 -71
13 0 12 -3139 -1 -3271 -20 -204 -69 -375 -164 -574 -280 -582 -921 -1131
-1873 -1601 l-213 -105 -211 106 c-622 310 -1039 594 -1394 950 -392 392 -602
796 -645 1241 -6 70 -10 670 -10 1677 0 1377 2 1568 15 1573 15 6 2207 391
2235 393 8 1 337 -55 730 -123z"/>
<path d="M3305 7093 c-297 -52 -554 -101 -572 -108 l-33 -14 22 -46 c12 -25
29 -45 37 -45 39 -1 1409 245 1398 251 -7 4 -70 16 -142 28 -71 12 -139 24
-150 26 -11 2 -263 -39 -560 -92z"/>
<path d="M3515 6966 l-740 -132 2 -31 c2 -17 7 -43 13 -57 l10 -26 945 0 945
0 0 160 c0 157 0 160 -22 165 -98 21 -324 55 -364 54 -27 -1 -382 -61 -789
-133z"/>
<path d="M5050 6050 l0 -930 468 2 467 3 3 843 c2 669 0 844 -10 847 -7 3
-209 38 -448 80 -239 41 -445 77 -457 80 l-23 5 0 -930z"/>
<path d="M2810 6621 c0 -48 3 -61 18 -65 21 -6 1836 -326 1851 -326 8 0 11 66
11 225 l0 225 -940 0 -940 0 0 -59z"/>
<path d="M2817 6503 c-3 -4 -7 -32 -8 -62 l-4 -55 940 -342 940 -342 3 235 c1
130 0 238 -2 241 -3 2 -409 76 -903 163 -494 87 -912 161 -930 164 -17 3 -34
2 -36 -2z"/>
<path d="M2772 6280 l-19 -60 441 -254 c243 -140 672 -387 953 -550 282 -163
520 -296 528 -296 13 0 15 33 13 267 l-3 267 -940 343 c-517 189 -943 343
-947 343 -3 0 -15 -27 -26 -60z"/>
<path d="M2705 6127 c-16 -28 -30 -55 -30 -59 0 -4 122 -109 270 -233 635
-533 742 -622 794 -667 l56 -48 378 0 c225 0 376 4 373 9 -4 5 -84 54 -179
109 -94 55 -494 285 -887 512 -393 227 -719 416 -724 421 -16 15 -20 11 -51
-44z"/>
<path d="M2604 5985 c-22 -25 -39 -51 -39 -56 0 -6 151 -190 335 -410 l335
-399 237 0 c131 0 238 4 238 9 0 4 -33 35 -72 68 -40 33 -131 109 -203 169
-71 60 -272 228 -445 373 -173 145 -322 270 -331 278 -15 13 -21 9 -55 -32z"/>
<path d="M2468 5863 c-27 -19 -48 -39 -48 -44 0 -11 378 -669 394 -687 9 -9
55 -12 186 -10 l173 3 -323 385 c-177 212 -325 386 -329 387 -3 1 -27 -14 -53
-34z"/>
<path d="M2308 5772 l-56 -27 112 -310 113 -310 142 -3 c77 -1 141 0 141 4 0
11 -384 674 -390 673 -3 0 -31 -13 -62 -27z"/>
<path d="M1733 5727 c-5 -7 -9 -146 -11 -309 l-3 -298 70 0 71 0 0 295 0 295
-27 6 c-16 3 -43 10 -60 14 -22 6 -35 5 -40 -3z"/>
<path d="M2131 5719 c-24 -4 -46 -10 -48 -12 -2 -3 19 -132 47 -289 27 -156
50 -287 50 -291 0 -4 57 -7 126 -7 115 0 125 1 120 18 -3 9 -53 145 -110 302
-113 312 -103 296 -185 279z"/>
<path d="M1904 5696 c-2 -6 -3 -137 -2 -291 l3 -280 104 -3 c58 -1 110 -1 116
2 8 3 -4 90 -40 291 l-50 286 -64 3 c-38 1 -65 -2 -67 -8z"/>
<path d="M1723 4173 c4 -658 2 -640 72 -849 184 -553 728 -1099 1556 -1562
140 -78 483 -252 498 -252 34 0 419 202 664 347 l177 106 0 1404 0 1403 -1486
0 -1485 0 4 -597z m1782 115 c145 -177 191 -319 147 -453 -11 -33 -37 -97 -57
-142 -33 -75 -74 -218 -90 -315 -5 -35 -8 -38 -40 -38 l-35 0 -1 263 c-1 144
-4 300 -8 347 -5 57 -8 -30 -9 -262 l-2 -348 -35 0 c-28 0 -35 4 -39 23 -29
150 -63 264 -107 364 -78 176 -78 277 -1 413 44 79 174 240 193 240 4 0 42
-42 84 -92z m-453 -453 c51 -34 111 -112 152 -198 34 -72 96 -254 96 -282 0
-28 -26 -15 -38 19 -34 94 -145 225 -218 258 -61 27 -141 7 -158 -39 -4 -9 6
-4 25 11 43 37 103 36 155 -2 73 -53 156 -164 179 -239 10 -34 -17 -29 -43 7
-32 43 -78 63 -148 64 -73 1 -105 -14 -139 -66 -14 -21 -30 -38 -36 -38 -5 0
-27 35 -47 78 -36 76 -37 79 -37 197 0 104 3 125 22 160 55 103 144 130 235
70z m870 25 c133 -37 172 -297 71 -482 -14 -26 -29 -48 -32 -48 -4 0 -24 20
-44 45 -43 51 -95 70 -161 60 -55 -10 -91 -29 -118 -65 -21 -29 -48 -40 -48
-20 0 51 138 233 201 266 46 23 103 18 141 -13 l33 -27 -24 27 c-68 75 -168
49 -266 -69 -31 -38 -70 -97 -86 -131 -30 -63 -49 -80 -49 -44 0 36 69 231
107 304 47 90 125 173 178 192 49 17 51 17 97 5z m-283 -549 c8 -5 11 -16 8
-25 -6 -14 -34 -16 -227 -16 -210 0 -220 1 -220 19 0 11 6 22 13 24 22 9 412
7 426 -2z m41 -100 c0 -10 -7 -22 -16 -25 -9 -3 -116 -6 -239 -6 -123 0 -230
3 -239 6 -9 3 -16 15 -16 25 0 18 11 19 255 19 244 0 255 -1 255 -19z m-35
-86 c0 -19 -8 -20 -214 -23 -127 -1 -219 2 -224 7 -5 5 -7 17 -4 26 6 13 33
15 224 13 210 -3 218 -4 218 -23z m-388 -82 c-8 -49 -55 -123 -96 -150 -21
-15 -51 -24 -80 -25 l-46 -1 42 -4 c89 -8 179 74 207 190 3 15 13 27 21 27 19
0 19 -38 1 -109 -24 -89 -87 -161 -171 -197 -49 -20 -95 -17 -146 9 -61 32
-89 77 -89 141 0 68 12 80 59 60 20 -9 63 -16 97 -17 77 -1 130 25 157 76 26
50 52 50 44 0z m153 -128 c6 -163 8 -158 19 45 6 106 8 115 26 115 17 0 21 -9
27 -68 8 -88 49 -173 122 -257 61 -69 72 -94 61 -137 -21 -87 -102 -142 -217
-151 -121 -9 -220 33 -258 108 -33 66 -27 99 31 165 28 32 61 74 73 94 35 55
66 147 66 195 0 47 6 58 30 54 12 -3 16 -30 20 -163z m154 109 c33 -104 125
-174 212 -161 21 3 17 4 -16 6 -53 1 -98 26 -133 73 -26 35 -58 118 -50 131
10 16 29 5 48 -30 39 -71 156 -99 250 -59 37 16 40 16 52 0 7 -10 13 -35 13
-57 0 -120 -128 -200 -242 -150 -97 44 -164 137 -175 247 -5 45 -3 56 9 56 9
0 21 -22 32 -56z"/>
<path d="M5050 3499 c0 -822 3 -1269 10 -1267 23 8 270 231 358 323 289 303
473 625 537 940 30 145 36 295 33 785 l-3 485 -467 3 -468 2 0 -1271z"/>
<path d="M2718 7393 c12 -2 30 -2 40 0 9 3 -1 5 -23 4 -22 0 -30 -2 -17 -4z"/>
<path d="M4948 7393 c12 -2 30 -2 40 0 9 3 -1 5 -23 4 -22 0 -30 -2 -17 -4z"/>
<path d="M5578 7310 c3 -22 11 -30 34 -35 43 -10 44 -1 0 33 l-38 31 4 -29z"/>
<path d="M2080 7300 l-35 -31 34 5 c42 7 43 9 39 36 -3 20 -5 19 -38 -10z"/>
<path d="M6377 6583 c-4 -3 -7 -105 -7 -225 0 -211 1 -220 24 -266 13 -26 33
-55 44 -66 21 -18 21 -18 39 40 27 91 23 246 -11 349 -28 85 -78 180 -89 168z"/>
<path d="M1297 6556 c-29 -44 -65 -141 -81 -218 -23 -113 -21 -155 16 -293
l10 -40 32 37 c18 21 38 55 44 76 14 47 17 448 3 456 -5 3 -16 -5 -24 -18z"/>
<path d="M1045 6204 c-43 -103 -58 -304 -30 -422 8 -34 28 -88 43 -119 l29
-57 26 45 c56 96 54 309 -4 484 -17 50 -34 94 -39 99 -5 5 -16 -8 -25 -30z"/>
<path d="M6624 6224 c-4 -10 -15 -39 -24 -64 -22 -57 -46 -175 -55 -265 -8
-83 13 -198 46 -251 l21 -35 20 31 c10 17 30 66 44 108 24 72 26 86 21 217 -3
110 -9 153 -26 200 -26 71 -38 86 -47 59z"/>
<path d="M1318 6035 c-3 -11 -21 -54 -38 -95 -86 -203 -152 -452 -186 -700
-26 -186 -26 -532 0 -720 24 -175 87 -447 125 -542 6 -13 23 -59 40 -103 16
-44 39 -100 50 -125 l21 -45 0 175 c0 148 -3 185 -20 240 -41 130 -72 255 -96
389 -22 115 -27 175 -31 391 -8 371 22 596 118 896 25 77 29 105 27 175 -2 46
-6 75 -10 64z"/>
<path d="M6370 5973 c0 -64 6 -101 31 -175 43 -131 76 -278 101 -448 31 -205
31 -553 0 -755 -27 -181 -76 -383 -122 -510 -6 -19 -9 -97 -8 -205 l3 -175 51
130 c141 355 204 675 204 1042 0 363 -65 704 -200 1044 -58 145 -59 147 -60
52z"/>
<path d="M10537 5943 c-3 -5 -14 -31 -25 -58 -94 -241 -258 -631 -273 -651 -5
-7 -23 -14 -39 -18 -20 -3 -30 -12 -30 -23 0 -16 12 -18 120 -18 115 0 121 1
118 20 -2 14 -13 21 -38 25 -45 6 -48 31 -17 120 l23 65 149 0 149 0 28 -70
c38 -99 37 -111 -12 -119 -29 -4 -40 -11 -40 -24 0 -15 15 -17 170 -17 154 0
170 2 170 17 0 11 -12 20 -32 26 -21 5 -39 20 -52 42 -11 18 -81 180 -157 359
l-137 326 -35 3 c-19 2 -37 -1 -40 -5z m52 -330 c28 -68 51 -130 51 -138 0
-12 -19 -15 -115 -15 -91 0 -115 3 -115 14 0 7 18 58 41 112 23 55 47 114 55
133 9 20 18 31 23 25 5 -5 32 -64 60 -131z"/>
<path d="M11905 5940 c-142 -30 -250 -110 -301 -222 -39 -86 -41 -211 -5 -306
68 -181 266 -276 504 -245 105 15 174 43 187 79 6 15 9 28 7 30 -1 2 -33 -8
-70 -21 -142 -52 -306 -27 -393 60 -54 55 -79 104 -94 186 -31 168 34 314 163
369 67 29 171 29 248 0 71 -26 87 -44 91 -100 2 -32 8 -46 20 -48 13 -3 18 8
24 55 16 127 17 123 -56 145 -74 21 -262 32 -325 18z"/>
<path d="M17330 5930 c-6 -11 -65 -151 -131 -312 -148 -359 -163 -389 -206
-400 -21 -6 -33 -15 -33 -26 0 -15 13 -17 125 -17 112 0 125 2 125 17 0 16
-11 22 -65 30 -26 5 -23 48 8 127 l22 56 146 3 146 3 32 -86 c18 -46 30 -89
27 -94 -3 -4 -24 -11 -46 -15 -29 -4 -40 -11 -40 -24 0 -15 15 -17 170 -17
165 0 171 1 168 20 -2 14 -12 21 -31 23 -33 4 -50 34 -147 267 -213 510 -191
465 -227 465 -22 0 -36 -6 -43 -20z m8 -207 c6 -16 31 -77 56 -137 25 -60 46
-113 46 -118 0 -5 -53 -7 -117 -6 -111 3 -118 4 -115 23 6 31 105 265 113 265
4 0 12 -12 17 -27z"/>
<path d="M9030 5920 c0 -16 7 -20 35 -20 24 0 37 -6 45 -19 6 -12 10 -135 10
-330 0 -341 0 -341 -61 -341 -21 0 -29 -5 -29 -18 0 -16 14 -17 178 -16 147 1
177 4 180 16 2 11 -10 17 -43 21 -26 2 -50 9 -55 13 -4 5 -10 77 -11 159 l-4
150 88 3 c54 2 94 -1 102 -8 7 -6 16 -29 20 -51 4 -24 12 -39 21 -39 11 0 14
23 14 120 0 96 -3 120 -14 120 -8 0 -17 -15 -20 -35 -9 -46 -36 -57 -135 -53
l-76 3 -3 50 c-2 28 -1 91 3 141 l7 92 51 6 c64 8 187 -8 198 -26 5 -7 9 -30
9 -50 0 -30 4 -38 19 -38 15 0 19 11 25 61 3 34 6 73 6 85 l0 24 -280 0 c-273
0 -280 0 -280 -20z"/>
<path d="M12890 5920 c0 -16 7 -20 34 -20 59 0 60 -5 66 -309 6 -313 7 -320
88 -374 79 -53 246 -70 364 -37 58 17 120 69 148 125 24 48 25 59 30 306 5
278 8 289 61 289 22 0 29 5 29 20 0 19 -7 20 -125 20 -118 0 -125 -1 -125 -20
0 -16 7 -20 35 -20 64 0 67 -16 63 -282 -4 -247 -9 -271 -55 -320 -54 -57
-184 -70 -268 -27 -91 45 -90 42 -90 345 0 288 -1 284 58 284 20 0 27 5 27 20
0 19 -7 20 -170 20 -163 0 -170 -1 -170 -20z"/>
<path d="M14300 5920 c0 -16 7 -20 34 -20 59 0 61 -6 64 -294 2 -144 1 -288
-3 -322 -5 -53 -10 -62 -36 -78 -17 -10 -28 -20 -26 -23 8 -8 531 -13 543 -5
10 7 37 182 29 190 -13 13 -35 -12 -45 -50 -6 -24 -14 -50 -19 -58 -11 -21
-86 -31 -194 -28 l-92 3 -3 317 c-3 352 -3 348 64 348 27 0 34 4 34 20 0 19
-7 20 -175 20 -168 0 -175 -1 -175 -20z"/>
<path d="M15510 5923 c0 -14 11 -22 43 -29 l42 -9 8 -130 c5 -71 6 -221 2
-331 -7 -199 -7 -202 -31 -215 -56 -29 -27 -34 209 -33 230 1 233 1 307 29 62
24 87 40 141 94 71 72 90 106 115 202 33 130 2 262 -81 346 -82 82 -104 86
-457 91 -287 3 -298 3 -298 -15z m518 -57 c69 -25 99 -52 134 -124 31 -63 33
-72 32 -172 -1 -122 -22 -191 -79 -257 -53 -62 -118 -86 -242 -87 -56 -1 -103
1 -106 4 -7 7 -12 285 -9 482 l2 167 28 4 c50 9 196 -1 240 -17z"/>
<path d="M18370 5922 c0 -15 9 -22 37 -27 21 -4 41 -12 45 -18 4 -7 8 -155 8
-329 l0 -317 -30 -21 c-16 -12 -30 -24 -30 -28 0 -4 105 -7 233 -6 214 0 237
2 296 23 115 40 194 110 247 219 23 48 28 73 32 162 3 90 1 113 -18 162 -28
76 -90 139 -166 169 -56 22 -72 23 -356 27 -291 3 -298 3 -298 -16z m482 -48
c62 -14 78 -23 119 -64 59 -59 81 -126 81 -241 -1 -119 -28 -199 -91 -267 -51
-55 -109 -74 -227 -76 -56 0 -106 2 -110 7 -12 12 -17 277 -9 471 7 168 8 175
29 179 50 10 142 6 208 -9z"/>
<path d="M19830 5920 c0 -15 7 -20 26 -20 14 0 34 -5 45 -10 18 -10 19 -25 19
-335 l0 -324 -30 -21 c-16 -12 -30 -24 -30 -28 0 -8 546 -10 553 -2 2 3 7 45
10 93 5 79 4 88 -10 85 -11 -2 -22 -22 -31 -59 -16 -68 -19 -69 -187 -69 -94
0 -114 3 -119 16 -3 9 -6 78 -6 155 l0 139 26 6 c14 4 61 4 106 2 88 -5 98
-12 98 -65 0 -26 4 -33 20 -33 19 0 20 7 20 121 0 109 -2 120 -17 117 -10 -2
-19 -12 -21 -23 -9 -61 -10 -62 -63 -68 -29 -4 -79 -4 -111 0 l-59 6 3 133 c2
73 7 136 11 140 9 10 189 10 238 1 34 -7 37 -10 44 -52 9 -64 31 -59 40 8 3
28 8 64 11 80 l6 27 -296 0 c-289 0 -296 0 -296 -20z"/>
<path d="M7917 5923 c-4 -3 -7 -930 -7 -2060 l0 -2053 70 0 70 0 0 2060 0
2060 -63 0 c-35 0 -67 -3 -70 -7z"/>
<path d="M6824 5779 c-122 -186 -185 -459 -136 -589 10 -25 22 -45 27 -45 16
0 92 122 118 191 15 38 32 103 38 144 12 80 7 278 -9 319 -9 24 -9 24 -38 -20z"/>
<path d="M831 5753 c-17 -87 -14 -227 8 -318 24 -100 52 -164 104 -238 47 -68
60 -64 78 21 16 78 5 202 -27 304 -38 121 -121 288 -142 288 -5 0 -14 -26 -21
-57z"/>
<path d="M1317 5596 c-4 -15 -6 -31 -2 -34 10 -10 16 6 13 35 l-3 28 -8 -29z"/>
<path d="M6370 5586 c0 -16 6 -26 14 -26 9 0 12 7 9 20 -8 31 -23 34 -23 6z"/>
<path d="M690 5239 c1 -207 88 -426 224 -558 l45 -44 12 29 c18 47 5 188 -26
269 -48 128 -146 285 -224 359 l-31 30 0 -85z"/>
<path d="M6970 5284 c-175 -194 -286 -478 -239 -613 l11 -33 35 34 c49 46 116
135 143 188 58 115 94 277 88 399 l-3 64 -35 -39z"/>
<path d="M1293 5258 c-27 -45 -53 -114 -53 -140 0 -4 20 0 45 10 l45 16 0 83
c0 46 -1 83 -3 83 -1 0 -17 -24 -34 -52z"/>
<path d="M6370 5226 c0 -80 1 -84 24 -90 13 -3 32 -9 42 -13 15 -6 17 -1 11
39 -5 37 -60 148 -73 148 -2 0 -4 -38 -4 -84z"/>
<path d="M14474 4891 c-18 -11 -103 -89 -190 -175 l-159 -155 48 -1 c42 0 71
12 228 97 206 111 229 128 229 176 0 69 -85 101 -156 58z"/>
<path d="M1303 4781 c-23 -64 -31 -141 -15 -141 5 0 16 6 26 13 14 10 16 26
14 102 l-3 90 -22 -64z"/>
<path d="M6371 4756 c-1 -73 2 -91 17 -102 9 -7 21 -14 26 -14 14 0 -2 118
-23 163 l-19 42 -1 -89z"/>
<path d="M640 4772 c0 -39 49 -209 78 -275 45 -99 114 -198 180 -258 63 -58
142 -110 154 -103 27 17 -3 157 -54 258 -59 117 -213 296 -315 367 -39 27 -43
28 -43 11z"/>
<path d="M6989 4737 c-148 -123 -289 -312 -326 -436 -16 -56 -23 -154 -12
-166 12 -11 130 78 191 144 99 109 175 264 204 417 8 47 14 88 12 90 -3 2 -33
-20 -69 -49z"/>
<path d="M9695 4465 c-103 -16 -154 -30 -237 -65 -202 -86 -360 -268 -415
-480 -24 -95 -22 -291 6 -393 54 -203 176 -359 353 -452 154 -81 305 -110 532
-102 166 6 255 24 376 78 65 29 70 34 91 86 31 76 19 83 -73 45 -133 -55 -190
-66 -348 -67 -123 0 -156 3 -215 22 -199 63 -344 220 -401 433 -24 90 -25 301
-1 390 72 268 280 414 567 396 150 -9 250 -43 323 -110 37 -33 37 -34 37 -112
0 -44 4 -85 9 -92 5 -8 23 -12 47 -10 l39 3 8 98 c4 55 14 131 22 170 8 39 11
74 7 78 -11 10 -130 47 -207 63 -169 37 -370 45 -520 21z"/>
<path d="M14216 4470 c-326 -52 -544 -233 -621 -515 -26 -95 -31 -322 -11
-426 57 -277 225 -454 505 -531 64 -18 106 -22 261 -22 217 -1 284 11 425 79
250 121 389 341 411 650 19 263 -73 492 -250 622 -142 105 -272 143 -506 148
-85 2 -182 0 -214 -5z m249 -110 c192 -28 314 -152 377 -385 18 -69 21 -107
21 -265 0 -158 -3 -196 -21 -263 -66 -239 -220 -367 -444 -367 -204 0 -342 85
-427 263 -67 139 -76 185 -76 412 0 182 2 207 23 275 33 104 66 162 129 221
105 99 240 134 418 109z"/>
<path d="M18057 4465 c-109 -18 -239 -62 -314 -106 -78 -47 -195 -159 -241
-233 -86 -135 -125 -317 -103 -484 35 -276 163 -462 396 -578 150 -74 217 -87
450 -88 221 -1 291 11 434 75 64 29 69 33 91 85 32 77 20 84 -72 46 -133 -55
-190 -66 -348 -66 -112 -1 -158 3 -204 18 -207 63 -354 218 -412 436 -22 82
-25 300 -5 380 66 270 280 422 571 407 120 -7 232 -41 300 -93 54 -41 58 -52
63 -164 l2 -65 42 -3 c49 -4 48 -6 58 128 3 47 12 114 21 149 8 36 11 68 7 72
-13 11 -101 37 -218 64 -141 33 -384 42 -518 20z"/>
<path d="M11222 4453 c-5 -10 -54 -126 -107 -258 -396 -973 -447 -1088 -482
-1099 -10 -3 -39 -8 -65 -12 l-48 -6 0 -42 0 -42 245 0 245 -1 0 43 0 43 -47
6 c-128 17 -133 22 -110 110 9 34 32 103 51 151 l33 89 273 0 273 0 29 -70
c16 -38 43 -110 60 -159 38 -106 35 -110 -73 -121 l-69 -7 0 -42 0 -43 335 0
335 0 0 43 c0 42 0 42 -42 49 -82 12 -91 20 -137 113 -23 48 -154 353 -290
677 l-248 590 -76 3 c-65 2 -77 0 -85 -15z m101 -624 c59 -144 106 -264 103
-266 -6 -6 -426 -7 -432 0 -6 5 207 527 215 527 3 0 55 -118 114 -261z"/>
<path d="M19446 4103 c-343 -845 -409 -997 -442 -1006 -11 -3 -40 -9 -66 -13
l-48 -6 0 -42 0 -42 245 -1 245 0 0 43 0 43 -47 6 c-125 16 -131 22 -114 98 6
29 29 97 50 152 l38 100 274 0 274 0 51 -135 c29 -74 55 -145 58 -156 10 -35
-16 -51 -94 -59 l-70 -7 0 -42 0 -43 335 0 335 0 0 43 c0 42 0 42 -42 49 -81
12 -91 20 -135 108 -22 45 -141 321 -263 612 -122 292 -234 559 -249 595 l-28
65 -79 3 -79 2 -149 -367z m247 -275 c59 -143 105 -263 103 -265 -6 -6 -426
-6 -432 0 -6 6 207 527 215 527 3 0 54 -118 114 -262z"/>
<path d="M12126 4450 c-1 -3 1 -81 4 -175 l5 -170 42 -3 41 -3 6 58 c13 127
19 146 47 154 40 10 314 22 348 14 l31 -7 -1 -456 c0 -508 -9 -733 -28 -756
-13 -16 -33 -21 -118 -31 l-53 -7 0 -37 0 -38 345 1 345 0 0 38 c0 42 4 40
-105 55 -57 8 -61 10 -72 43 -18 54 -18 1159 1 1185 12 17 23 18 189 8 111 -6
181 -14 190 -22 10 -8 17 -42 22 -107 l7 -95 42 3 41 3 6 85 c4 47 10 126 14
175 l7 90 -677 0 c-372 0 -678 -2 -679 -5z"/>
<path d="M15312 4416 l3 -41 74 -7 c41 -5 79 -12 85 -18 5 -5 13 -40 17 -77
10 -84 11 -886 3 -1050 l-7 -121 -53 -32 c-39 -23 -54 -39 -54 -54 l0 -22 532
0 533 1 17 160 c9 88 19 173 22 188 6 28 5 28 -41 25 l-46 -3 -24 -100 c-13
-55 -30 -105 -39 -111 -27 -21 -162 -34 -344 -34 l-180 0 -6 27 c-4 15 -4 281
-1 591 5 426 10 570 19 590 11 23 22 28 73 35 109 15 105 13 105 55 l0 37
-345 1 -346 1 3 -41z"/>
<path d="M16592 4416 l3 -41 75 -7 c49 -4 78 -11 85 -22 16 -21 25 -279 24
-685 0 -387 -8 -535 -30 -557 -9 -8 -33 -17 -55 -20 -110 -15 -104 -11 -104
-54 l0 -39 340 1 340 1 0 37 c0 43 -10 50 -75 50 -50 0 -90 15 -102 39 -4 9
-9 273 -11 586 -3 620 -2 642 48 656 14 4 44 7 67 8 63 2 73 8 73 50 l0 37
-340 0 -341 1 3 -41z"/>
<path d="M700 4197 c0 -18 47 -133 75 -185 95 -172 236 -307 391 -375 92 -40
94 -39 70 48 -33 127 -148 267 -318 388 -61 44 -218 133 -218 124z"/>
<path d="M6920 4159 c-151 -82 -314 -221 -389 -331 -34 -52 -81 -166 -81 -199
0 -18 4 -20 26 -15 47 12 167 76 213 114 102 83 193 195 249 307 30 61 65 155
60 161 -2 2 -37 -15 -78 -37z"/>
<path d="M840 3621 c0 -17 99 -158 154 -218 72 -78 196 -172 281 -213 68 -33
164 -64 171 -57 3 2 -9 46 -25 98 -16 52 -32 106 -35 120 -11 51 -225 178
-401 237 -112 37 -145 45 -145 33z"/>
<path d="M6825 3623 c-59 -14 -210 -70 -277 -104 -105 -53 -228 -138 -228
-158 0 -15 -48 -171 -65 -215 -7 -16 -5 -18 26 -11 57 12 165 62 242 111 121
78 297 271 333 367 6 17 4 18 -31 10z"/>
<path d="M1109 3041 c78 -98 272 -236 412 -292 55 -22 149 -50 149 -44 0 2
-21 39 -46 82 -26 43 -64 112 -85 154 l-39 76 -61 18 c-82 23 -230 45 -302 45
l-59 0 31 -39z"/>
<path d="M6405 3065 c-44 -7 -107 -20 -140 -29 l-60 -17 -54 -104 c-29 -57
-69 -127 -87 -155 -19 -29 -34 -53 -34 -55 0 -9 123 31 195 64 136 63 275 165
356 262 l41 49 -69 -1 c-37 -1 -104 -7 -148 -14z"/>
<path d="M1540 2593 c-25 -3 -49 -8 -54 -13 -12 -12 104 -95 204 -145 83 -42
248 -100 257 -91 3 3 -25 39 -61 80 -36 42 -82 98 -102 126 l-36 50 -81 -2
c-45 -1 -102 -3 -127 -5z"/>
<path d="M5913 2544 c-22 -33 -69 -90 -103 -128 -33 -37 -59 -70 -56 -73 8 -9
167 48 252 89 99 49 220 136 207 149 -5 5 -65 12 -134 15 l-124 7 -42 -59z"/>
<path d="M17845 2460 c-33 -33 -53 -60 -46 -60 7 0 47 18 88 41 77 43 93 71
43 77 -19 2 -39 -11 -85 -58z"/>
<path d="M9030 2333 c0 -7 11 -13 25 -13 14 0 29 -8 35 -19 6 -12 10 -108 10
-241 l0 -221 -26 -24 -27 -25 119 -2 c242 -4 310 11 390 89 66 64 88 119 89
223 0 73 -4 92 -25 130 -34 60 -91 98 -165 110 -92 15 -425 10 -425 -7z m383
-39 c82 -28 118 -95 119 -216 0 -112 -42 -196 -115 -234 -32 -17 -144 -30
-181 -20 l-26 6 0 240 0 240 78 0 c46 0 98 -7 125 -16z"/>
<path d="M10536 2152 c-123 -305 -131 -321 -166 -333 -53 -19 -32 -29 61 -29
68 0 90 3 87 13 -3 6 -15 13 -27 15 -32 5 -34 20 -13 82 l19 55 109 3 110 3
22 -53 c29 -71 28 -84 -8 -91 -16 -4 -30 -12 -30 -19 0 -10 29 -12 126 -10 91
2 124 6 121 15 -2 7 -13 13 -25 15 -12 2 -27 13 -33 24 -17 31 -189 438 -202
476 -9 27 -15 32 -41 32 -31 0 -31 -1 -110 -198z m121 -45 l41 -102 -85 -3
c-47 -2 -88 -1 -91 2 -6 6 78 206 87 206 3 0 25 -46 48 -103z"/>
<path d="M12820 2333 c0 -6 12 -13 28 -15 25 -3 28 -7 34 -58 8 -75 9 -270 1
-364 -6 -75 -7 -77 -35 -83 -15 -3 -28 -12 -28 -20 0 -10 6 -13 16 -9 9 3 67
6 130 6 113 0 150 12 75 24 l-38 6 -7 76 c-8 97 -8 327 0 377 8 45 35 56 95
38 47 -14 69 -51 69 -115 0 -63 -37 -106 -91 -106 -29 0 -37 -3 -33 -14 8 -21
52 -25 106 -11 83 21 128 79 128 163 0 68 -25 97 -93 111 -72 15 -357 10 -357
-6z"/>
<path d="M14211 2328 c-11 -28 -87 -216 -148 -362 -53 -130 -62 -144 -87 -148
-11 -2 -21 -9 -24 -15 -3 -10 19 -13 88 -13 69 0 91 3 88 13 -3 6 -15 14 -29
15 -38 6 -40 14 -18 80 l21 63 110 -3 110 -3 24 -59 c13 -32 21 -62 19 -66 -3
-5 -19 -11 -35 -15 -17 -4 -30 -12 -30 -18 0 -9 36 -12 125 -12 106 0 125 2
123 15 -2 8 -13 16 -24 18 -22 3 -56 67 -123 233 -16 41 -46 112 -66 159 -20
47 -41 97 -47 113 -13 36 -64 39 -77 5z m48 -218 c22 -55 41 -103 41 -105 0
-3 -41 -5 -91 -5 -50 0 -89 4 -87 8 59 145 84 202 89 202 3 0 25 -45 48 -100z"/>
<path d="M15230 2335 c0 -7 12 -15 27 -17 37 -4 42 -34 42 -253 1 -220 -3
-244 -40 -252 -16 -3 -29 -11 -29 -17 0 -8 37 -10 125 -8 69 2 125 6 125 11 0
4 -15 11 -32 16 l-33 10 -9 90 c-4 50 -5 159 -1 243 l7 152 53 0 c95 0 146
-71 111 -153 -16 -40 -67 -77 -105 -77 -30 0 -30 0 73 -158 l86 -132 75 0 c72
0 97 12 54 25 -16 6 -171 221 -186 261 -2 6 10 17 27 24 16 7 44 28 60 47 25
28 30 42 30 86 0 46 -4 57 -31 83 l-30 29 -200 2 c-163 2 -199 -1 -199 -12z"/>
<path d="M16726 2342 c-2 -4 -38 -91 -79 -192 -116 -285 -133 -319 -162 -330
-50 -19 -26 -30 65 -30 90 0 122 14 59 27 -17 3 -33 11 -35 18 -3 6 5 37 16
68 l21 57 108 0 108 0 22 -51 c29 -70 27 -86 -9 -94 -16 -4 -30 -12 -30 -18 0
-9 36 -12 125 -12 106 0 125 2 123 15 -2 8 -13 16 -26 18 -28 4 -33 15 -153
304 -90 217 -95 228 -121 228 -15 0 -29 -3 -32 -8z m38 -224 c21 -51 40 -99
43 -105 4 -10 -17 -13 -86 -13 -50 0 -91 2 -91 5 0 13 84 205 89 205 4 0 24
-42 45 -92z"/>
<path d="M17740 2333 c0 -8 12 -13 29 -13 17 0 31 -6 35 -16 3 -9 6 -116 6
-239 0 -239 -3 -255 -51 -255 -10 0 -19 -6 -19 -12 0 -10 32 -13 125 -13 93 0
125 3 125 13 0 6 -9 12 -19 12 -48 0 -51 16 -51 255 0 123 3 230 6 239 4 10
18 16 35 16 17 0 29 5 29 13 0 10 -28 13 -125 13 -97 0 -125 -3 -125 -13z"/>
<path d="M18693 2337 c2 -7 12 -14 23 -16 43 -8 44 -13 44 -262 0 -234 0 -238
-22 -253 -21 -15 -17 -16 67 -18 149 -3 207 2 254 24 138 66 129 259 -13 275
-25 3 -46 9 -46 13 0 4 20 15 43 24 66 25 92 58 92 116 0 92 -47 110 -293 109
-111 -1 -152 -4 -149 -12z m281 -31 c44 -18 63 -69 46 -121 -15 -45 -43 -63
-100 -67 l-45 -3 -3 89 c-2 49 -1 95 2 103 7 17 58 17 100 -1z m38 -265 c23
-26 28 -40 28 -86 0 -96 -36 -135 -125 -135 l-45 0 0 131 0 131 57 -4 c48 -4
61 -10 85 -37z"/>
<path d="M20050 2123 c-118 -288 -123 -299 -155 -307 -54 -14 -22 -26 66 -26
68 0 90 3 87 13 -3 6 -17 13 -31 15 -33 4 -35 25 -10 95 l17 47 108 0 109 0
20 -47 c30 -71 29 -85 -8 -96 -61 -18 -34 -27 81 -27 63 0 121 -3 130 -6 31
-12 16 22 -16 37 -35 15 -29 4 -192 392 -55 129 -60 137 -86 137 -26 0 -31 -9
-120 -227z m131 -13 c22 -52 39 -98 39 -102 0 -5 -38 -8 -85 -8 -53 0 -85 4
-85 11 0 22 75 199 84 196 5 -2 26 -45 47 -97z"/>
<path d="M2037 2165 c-77 -26 -87 -32 -67 -45 54 -34 275 -110 320 -109 10 0
4 9 -15 25 -16 15 -53 47 -80 73 -93 86 -81 81 -158 56z"/>
<path d="M5498 2101 c-53 -47 -95 -88 -93 -90 7 -6 148 31 210 56 76 30 125
56 125 64 0 8 -38 24 -100 42 l-45 14 -97 -86z"/>
<path d="M1216 1860 c-398 -334 -346 -311 -462 -207 -86 79 -193 206 -279 336
-37 55 -68 101 -70 101 -1 0 -16 -5 -34 -11 -22 -8 -31 -17 -31 -34 0 -12 20
-158 45 -324 25 -166 45 -309 45 -319 0 -13 -47 -35 -213 -96 -116 -44 -213
-80 -214 -81 -5 -3 42 -110 75 -170 167 -308 632 -654 954 -711 21 -3 35 -11
32 -16 -9 -14 52 0 103 23 23 11 58 39 79 61 40 45 104 174 124 253 7 28 16
53 19 57 4 4 58 -25 121 -64 442 -276 1017 -492 1550 -582 316 -54 411 -61
805 -61 395 0 492 8 805 61 560 95 1189 337 1603 616 31 21 61 37 66 34 5 -3
12 -22 16 -43 19 -101 94 -244 158 -300 38 -33 136 -70 146 -55 3 5 38 17 76
26 297 74 661 331 857 606 50 70 128 223 128 251 0 13 -51 36 -210 95 -165 62
-210 83 -210 97 0 9 20 154 45 320 25 167 45 313 45 324 0 15 -10 24 -31 32
-18 6 -34 11 -36 11 -2 0 -20 -26 -40 -57 -110 -174 -318 -411 -396 -452 -25
-13 -29 -13 -50 6 -40 36 -652 549 -664 556 -7 4 -32 -20 -64 -60 -74 -95
-218 -242 -320 -328 -422 -354 -924 -568 -1534 -651 -179 -25 -596 -25 -780 0
-546 72 -1009 254 -1411 554 -136 102 -310 264 -400 373 -32 39 -68 83 -80 97
l-20 24 -348 -292z m415 83 c190 -222 490 -450 792 -604 475 -241 972 -351
1527 -336 313 8 553 45 834 127 508 149 994 448 1306 804 46 53 88 95 92 94 3
-2 180 -149 393 -327 l386 -325 -103 -104 c-635 -643 -1491 -1039 -2503 -1159
-213 -25 -767 -25 -980 0 -567 68 -1051 209 -1510 442 -380 192 -677 404 -963
687 -127 126 -132 133 -115 149 35 34 758 639 764 639 3 0 39 -39 80 -87z
m-1124 -139 c72 -93 144 -171 214 -230 38 -32 69 -62 69 -66 0 -4 -29 -31 -64
-60 l-64 -52 3 -58 c5 -77 33 -127 167 -295 191 -237 256 -348 279 -475 16
-89 4 -142 -35 -146 -66 -8 -281 82 -438 183 -153 99 -296 226 -393 350 -61
78 -142 212 -133 220 2 3 93 38 202 79 109 41 201 77 204 80 3 4 -11 120 -31
259 -20 138 -37 259 -37 267 0 16 2 14 57 -56z m6738 -195 c-20 -133 -35 -250
-33 -261 2 -15 44 -35 202 -94 110 -40 201 -76 203 -78 7 -7 -43 -98 -96 -173
-135 -191 -348 -366 -597 -491 -112 -56 -228 -95 -270 -90 -39 4 -51 56 -35
148 23 126 86 233 275 470 140 175 163 216 169 295 l4 60 -64 54 c-35 30 -62
57 -61 61 2 5 30 32 63 62 76 67 168 166 225 242 24 32 46 54 48 48 2 -6 -13
-120 -33 -253z"/>
<path d="M6150 1670 l-63 -71 184 -185 184 -184 67 67 68 67 -28 29 -27 28
-42 -48 -42 -48 -58 57 -57 58 34 35 34 35 -24 25 -24 25 -36 -35 -36 -35 -52
53 -52 53 40 39 c22 21 40 44 40 50 0 6 -11 21 -24 34 l-23 22 -63 -71z"/>
<path d="M1322 1545 c-95 -101 -172 -188 -171 -192 0 -5 21 -25 45 -45 38 -32
53 -38 90 -38 62 0 88 16 182 114 106 110 122 137 122 204 0 48 -4 57 -41 97
-23 25 -45 45 -48 45 -4 0 -85 -83 -179 -185z m199 61 c7 -14 9 -35 5 -49 -7
-30 -171 -206 -203 -218 -29 -11 -76 6 -71 25 4 20 231 264 246 265 7 1 17
-10 23 -23z"/>
<path d="M1549 1413 c-68 -82 -142 -171 -166 -199 l-43 -51 24 -22 24 -23 164
197 c90 108 164 200 165 204 1 3 -9 14 -22 24 l-24 17 -122 -147z"/>
<path d="M6001 1526 l-22 -23 92 -164 c134 -241 163 -289 173 -289 5 0 18 7
28 17 17 16 17 18 -7 58 -25 44 -24 55 7 55 10 0 18 3 18 8 0 4 4 13 9 21 7
11 15 9 43 -13 41 -31 50 -32 72 -7 16 17 14 20 -31 57 -27 21 -111 92 -188
158 -77 66 -147 125 -156 133 -13 11 -19 9 -38 -11z m207 -216 c23 -19 42 -40
42 -47 0 -11 -38 -39 -44 -31 -9 11 -76 130 -76 135 0 6 10 -1 78 -57z"/>
<path d="M1689 1408 c-35 -46 -105 -138 -156 -204 l-93 -122 76 -57 c73 -54
76 -56 95 -39 28 26 24 40 -26 76 -24 18 -43 38 -41 44 2 6 57 80 121 164 150
197 145 188 121 206 -11 8 -23 14 -27 14 -5 0 -36 -37 -70 -82z"/>
<path d="M5735 1329 c-82 -55 -154 -105 -159 -109 -5 -5 24 -67 69 -147 43
-76 80 -142 83 -148 3 -5 -3 -3 -14 6 -10 9 -74 62 -142 119 l-123 103 -82
-40 c-45 -22 -99 -46 -119 -54 -21 -7 -38 -18 -38 -25 0 -11 142 -337 185
-426 10 -21 22 -38 27 -38 12 0 161 62 172 71 7 7 -10 69 -19 69 -1 0 -28 -11
-59 -25 -31 -14 -60 -25 -64 -25 -7 0 -62 117 -62 133 0 4 20 17 45 28 51 23
49 19 33 54 -13 28 -31 31 -68 10 -14 -8 -31 -14 -38 -15 -11 0 -62 99 -62
122 0 11 108 60 122 56 5 -2 55 -86 112 -188 57 -101 108 -186 113 -187 6 -2
20 4 32 14 l21 18 -43 75 c-94 165 -119 212 -107 205 6 -4 68 -54 137 -111 69
-57 130 -104 135 -104 8 0 46 17 56 25 1 1 -48 89 -109 195 l-112 194 34 28
c18 15 38 28 44 28 5 -1 61 -77 124 -170 62 -93 119 -174 127 -180 14 -12 54
3 54 20 0 6 -55 91 -122 191 -118 173 -122 182 -103 195 58 39 60 41 46 58 -7
9 -11 16 -8 16 3 0 64 -78 136 -172 190 -252 166 -226 191 -203 11 10 19 24
17 29 -7 16 -297 401 -305 403 -4 1 -74 -43 -157 -98z"/>
<path d="M1887 1322 c-18 -26 -85 -121 -147 -211 l-113 -164 23 -19 c12 -10
25 -18 29 -18 13 1 292 420 286 430 -3 5 -15 14 -25 20 -15 8 -24 2 -53 -38z"/>
<path d="M2016 1265 c-64 -22 -74 -33 -157 -175 -85 -144 -91 -225 -21 -280
35 -28 109 -27 153 3 30 20 99 108 99 126 0 4 -26 22 -57 40 l-57 32 -18 -23
c-24 -31 -22 -43 7 -56 32 -15 32 -35 0 -56 -53 -35 -105 -11 -105 50 0 39
108 234 144 259 68 49 129 -21 92 -106 -5 -11 1 -19 21 -28 23 -11 29 -10 40
5 22 30 26 97 9 139 -27 65 -86 92 -150 70z"/>
<path d="M2143 946 c-62 -122 -113 -227 -113 -233 0 -9 50 -37 55 -31 8 9 225
449 225 456 0 7 -43 32 -53 32 -1 0 -53 -101 -114 -224z"/>
<path d="M2313 1100 c-11 -30 -11 -31 33 -52 24 -12 44 -25 44 -28 0 -4 -41
-94 -91 -200 -86 -183 -90 -194 -73 -207 10 -8 25 -12 33 -11 8 2 54 88 103
192 48 104 90 192 93 194 2 2 23 -3 45 -12 23 -9 46 -13 52 -10 7 5 9 2 6 -7
-3 -8 -40 -103 -83 -212 -43 -109 -73 -202 -69 -206 5 -5 47 -23 94 -40 79
-30 85 -31 97 -15 26 35 15 51 -47 74 -33 12 -60 25 -60 29 0 3 12 36 26 73
l25 67 50 -18 49 -19 16 30 c8 16 14 31 12 33 -2 2 -25 13 -51 24 l-47 20 21
58 c12 32 25 62 30 67 4 5 32 -1 65 -14 55 -23 57 -23 70 -5 28 37 17 49 -71
83 -47 18 -92 32 -99 32 -8 0 -61 22 -119 49 -144 67 -140 67 -154 31z"/>
<path d="M5117 1008 c-15 -5 -27 -13 -25 -17 2 -4 45 -112 97 -239 97 -239
104 -250 143 -220 14 12 6 39 -80 250 -54 131 -99 237 -102 237 -3 0 -18 -5
-33 -11z"/>
<path d="M4915 943 c-11 -3 -24 -9 -29 -13 -5 -5 25 -114 70 -254 78 -241 79
-245 104 -239 14 3 29 9 33 13 5 5 -6 53 -24 109 l-33 101 42 35 c81 70 74
177 -15 236 -27 18 -98 24 -148 12z m126 -81 c29 -25 30 -75 1 -105 -14 -13
-25 -18 -31 -12 -10 12 -41 103 -41 122 0 19 44 16 71 -5z"/>
<path d="M2921 868 c-5 -18 -35 -129 -66 -247 -44 -166 -54 -215 -44 -222 16
-10 180 -51 185 -46 2 2 6 17 10 33 6 30 5 31 -55 47 -43 12 -61 22 -61 33 0
9 23 101 50 205 28 104 50 195 50 203 0 14 -20 26 -45 26 -7 0 -18 -15 -24
-32z"/>
<path d="M4708 878 c-15 -12 -14 -35 4 -268 11 -140 22 -257 24 -258 1 -2 17
-1 34 3 31 7 32 8 28 56 -3 49 -3 49 28 49 17 0 37 7 45 16 11 14 16 10 36
-30 21 -42 26 -46 51 -40 15 4 29 9 32 11 2 2 -48 110 -113 238 -120 242 -129
254 -169 223z m110 -253 c34 -70 33 -95 -4 -95 -13 0 -24 1 -25 3 -5 18 -13
157 -9 157 3 0 20 -29 38 -65z"/>
<path d="M3125 846 c-11 -34 -65 -351 -65 -381 0 -113 114 -182 207 -125 55
33 62 54 128 436 5 29 3 32 -25 36 -17 3 -33 2 -35 -2 -2 -3 -18 -87 -35 -185
-18 -99 -38 -190 -46 -202 -30 -47 -97 -41 -119 10 -12 29 -10 52 21 217 18
102 34 188 34 191 0 12 -62 16 -65 5z"/>
<path d="M4449 811 c-25 -26 -29 -37 -29 -88 0 -35 8 -74 19 -100 16 -34 30
-46 84 -72 71 -34 91 -63 85 -122 -2 -27 -8 -35 -26 -37 -18 -3 -26 3 -35 27
-9 25 -17 31 -40 31 -15 0 -30 -7 -33 -15 -10 -26 30 -89 69 -108 36 -18 38
-18 74 0 50 24 65 55 60 124 -5 82 -35 124 -113 159 -56 25 -64 33 -69 63 -4
18 -5 47 -3 63 4 41 38 39 58 -3 15 -33 41 -42 69 -24 13 8 12 15 -4 51 -38
83 -111 106 -166 51z"/>
<path d="M3430 791 c0 -10 -11 -125 -25 -256 -13 -131 -22 -242 -19 -246 3 -5
18 -9 33 -9 33 0 31 -5 52 207 12 121 21 142 34 82 4 -17 12 -32 18 -34 40
-13 52 -9 74 30 27 48 27 48 8 -145 -8 -80 -15 -148 -15 -152 0 -5 16 -8 35
-8 19 0 35 3 36 8 0 4 10 117 23 252 12 135 20 248 17 252 -3 4 -19 8 -36 10
-28 3 -32 -2 -69 -71 -43 -82 -44 -82 -71 20 -16 61 -20 68 -47 73 -44 9 -48
8 -48 -13z"/>
<path d="M4174 748 c3 -24 8 -99 11 -168 l5 -125 -79 163 -80 163 -33 -3 -32
-3 2 -55 c5 -122 23 -388 28 -428 5 -41 6 -42 41 -42 35 0 36 0 30 38 -3 20
-9 95 -12 167 l-5 130 79 -162 80 -163 33 7 c18 3 34 7 35 8 1 0 -6 116 -17
256 -11 140 -20 255 -20 257 0 1 -16 2 -36 2 l-36 0 6 -42z"/>
<path d="M3737 523 c-3 -141 -4 -261 -1 -265 3 -4 52 -8 110 -8 l104 0 0 35 0
35 -52 0 c-102 0 -106 5 -92 113 l7 46 51 3 51 3 0 35 0 35 -52 3 -53 3 0 75
0 75 68 -3 67 -3 3 38 3 37 -104 0 -104 0 -6 -257z"/>
<path d="M2493 1728 c-43 -35 -77 -67 -77 -73 1 -5 19 -13 40 -17 50 -9 245
-9 304 0 l45 7 -60 39 c-33 22 -80 55 -104 73 -24 18 -50 33 -57 33 -7 0 -48
-28 -91 -62z"/>
<path d="M5001 1716 l-103 -71 53 -8 c62 -10 305 -3 333 8 18 8 18 9 -1 24
-85 69 -158 121 -167 120 -6 -1 -58 -33 -115 -73z"/>
</g>
</svg>
