<?xml version="1.0" encoding="utf-8"?>
<!-- Generator: Adobe Illustrator 16.0.3, SVG Export Plug-In . SVG Version: 6.00 Build 0)  -->
<!DOCTYPE svg PUBLIC "-//W3C//DTD SVG 1.1//EN" "http://www.w3.org/Graphics/SVG/1.1/DTD/svg11.dtd">
<svg version="1.1"
	 id="svg2" xmlns:dc="http://purl.org/dc/elements/1.1/" xmlns:cc="http://creativecommons.org/ns#" xmlns:rdf="http://www.w3.org/1999/02/22-rdf-syntax-ns#" xmlns:svg="http://www.w3.org/2000/svg"
	 xmlns="http://www.w3.org/2000/svg" xmlns:xlink="http://www.w3.org/1999/xlink" x="0px" y="0px" width="136.397px"
	 height="14.961px" viewBox="3.753 118.049 136.397 14.961" enable-background="new 3.753 118.049 136.397 14.961"
	 xml:space="preserve">
<path id="path88" fill="#231F20" d="M20.612,127.758c-0.256,0.873-0.573,1.889-1.829,3.041c-1.131,1.033-3,2.211-6.581,2.211
	c-4.989,0-8.449-2.611-8.449-7.52c0-5.291,4.216-7.438,8.65-7.438c1.608,0,5.842,0.377,7.705,3.742l-3.511,1.112
	c-0.377-0.599-1.499-2.146-4.22-2.146c-3.182,0-4.967,2.084-4.967,4.771c0,3.063,2.429,4.69,5.091,4.69
	c3.042,0,3.957-1.592,4.416-2.444L20.612,127.758"/>
<path id="path90" fill="#231F20" d="M22.151,118.491h3.522v5.41h8.313v-5.41h3.521v14.041h-3.521v-6.027h-8.313v6.027h-3.522
	V118.491"/>
<path id="path92" fill="#231F20" d="M48.188,122.805c-0.103-0.178-0.181-0.376-0.241-0.555c-0.06-0.179-0.098-0.358-0.117-0.559
	c-0.061,0.178-0.102,0.34-0.14,0.497c-0.083,0.181-0.141,0.357-0.221,0.537l-1.959,4.249h4.531L48.188,122.805L48.188,122.805z
	 M45.96,118.491h3.798l6.781,14.041h-3.939l-1.391-3.068h-6.837l-1.355,3.068h-3.838L45.96,118.491"/>
<path id="path94" fill="#231F20" d="M58.348,118.491h3.52v11.453h7.092v2.588H58.348V118.491"/>
<path id="path96" fill="#231F20" d="M71.077,118.491h5.071l3.657,8.592c0.377,0.912,0.519,1.291,0.717,2.088
	c0.139-0.597,0.257-0.957,0.654-1.928l3.659-8.752h5.033v14.041h-3.323v-9.824c0-0.42,0.063-0.776,0.142-1.313
	c-0.142,0.415-0.197,0.579-0.397,1.075l-4.194,10.063h-3.206l-4.194-9.865c-0.221-0.535-0.259-0.693-0.417-1.272
	c0.059,0.599,0.079,0.716,0.121,1.255v9.883h-3.322V118.491"/>
<path id="path116" fill="#231F20" d="M112.768,124.405h5.605c0.755,0,2.107-0.098,2.107-1.668c0-0.279-0.036-0.758-0.278-1.096
	c-0.256-0.338-0.596-0.674-1.984-0.674h-5.45V124.405z M109.249,118.5h9.663c1.594,0,3.038,0.14,4.214,1.49
	c0.718,0.834,0.918,1.889,0.918,2.705c0,1.074-0.359,2.346-1.356,3.101c-0.751,0.579-1.729,0.777-2.284,0.876l4.256,5.864h-4.041
	l-3.854-5.646h-3.995v5.646h-3.52V118.5"/>
<path id="path112" fill="#231F20" d="M128.48,128.248c0.827,1.679,2.842,2.16,4.752,2.129c0.855-0.018,3.536-0.205,3.507-1.913
	c-0.021-1.015-0.999-1.234-1.752-1.361c-0.582-0.109-3.474-0.496-4.134-0.605c-1.293-0.215-4.564-0.773-4.619-3.955
	c-0.012-0.697,0.172-1.414,0.519-1.997c1.141-1.909,3.719-2.454,5.946-2.491c2.047-0.038,3.622,0.234,5.089,1.004
	c1.446,0.75,2.078,1.775,2.362,2.227l-3.324,0.895c-0.12-0.218-0.412-0.731-1.254-1.132c-0.939-0.443-2.153-0.499-2.829-0.489
	c-1.551,0.023-3.137,0.353-3.113,1.684c0.016,0.916,0.833,1.141,1.892,1.361c0.579,0.109,3.45,0.536,4.11,0.663
	c1.632,0.271,4.407,0.817,4.465,3.901c0.075,4.512-4.984,4.769-7.029,4.797c-2.309,0.029-5.901-0.297-7.774-3.824L128.48,128.248"/>
<path id="path114" fill="#231F20" d="M93.123,118.491h13.081v2.527h-9.561v3.16h8.425v2.488h-8.425v3.359h9.959v2.506H93.123
	V118.491"/>
</svg>
