<?xml version="1.0" standalone="no"?>
<!DOCTYPE svg PUBLIC "-//W3C//DTD SVG 20010904//EN"
 "http://www.w3.org/TR/2001/REC-SVG-20010904/DTD/svg10.dtd">
<svg version="1.0" xmlns="http://www.w3.org/2000/svg"
 width="250.000000pt" height="95.000000pt" viewBox="0 0 250.000000 95.000000"
 preserveAspectRatio="xMidYMid meet">

<g transform="translate(0.000000,95.000000) scale(0.100000,-0.100000)"
fill="#000000" stroke="none">
<path d="M1090 776 c0 -43 3 -56 15 -56 8 0 15 9 15 19 0 13 8 21 23 23 17 2
22 10 22 33 0 27 -3 30 -37 33 l-38 3 0 -55z m52 19 c0 -5 -5 -11 -11 -13 -6
-2 -11 4 -11 13 0 9 5 15 11 13 6 -2 11 -8 11 -13z"/>
<path d="M1197 823 c-4 -3 -7 -26 -7 -49 0 -33 5 -46 19 -54 25 -13 27 -13 45
6 19 18 21 75 4 92 -13 13 -50 16 -61 5z m43 -49 c0 -24 -4 -34 -12 -32 -11 4
-13 20 -9 58 1 6 6 10 11 10 6 0 10 -16 10 -36z"/>
<path d="M1290 775 l0 -55 40 0 c22 0 40 5 40 10 0 6 -11 10 -25 10 -23 0 -25
4 -25 45 0 33 -4 45 -15 45 -12 0 -15 -13 -15 -55z"/>
<path d="M1370 790 c11 -21 20 -46 20 -55 0 -8 5 -15 10 -15 6 0 10 9 10 20 0
12 7 35 16 51 18 36 9 53 -12 24 -14 -19 -16 -19 -28 -2 -26 34 -37 18 -16
-23z"/>
<path d="M1450 820 c0 -5 7 -10 15 -10 11 0 15 -12 15 -45 0 -25 5 -45 10 -45
6 0 10 20 10 45 0 33 4 45 15 45 8 0 15 5 15 10 0 6 -18 10 -40 10 -22 0 -40
-4 -40 -10z"/>
<path d="M1550 775 l0 -55 40 0 c22 0 40 5 40 10 0 6 -13 10 -30 10 -34 0 -41
19 -10 27 11 3 20 9 20 14 0 5 -9 9 -20 9 -11 0 -20 5 -20 10 0 6 11 10 25 10
14 0 25 5 25 10 0 6 -16 10 -35 10 l-35 0 0 -55z"/>
<path d="M1652 818 c-25 -25 -6 -108 24 -108 16 0 44 23 44 35 0 17 -16 20
-25 5 -13 -21 -25 -9 -25 25 0 36 8 43 27 24 8 -8 13 -8 17 0 17 28 -37 44
-62 19z"/>
<path d="M1740 775 c0 -42 3 -55 15 -55 9 0 15 9 15 25 0 16 6 25 15 25 9 0
15 -9 15 -25 0 -16 6 -25 15 -25 12 0 15 13 15 55 0 42 -3 55 -15 55 -8 0 -15
-9 -15 -20 0 -11 -7 -20 -15 -20 -8 0 -15 9 -15 20 0 11 -7 20 -15 20 -12 0
-15 -13 -15 -55z"/>
<path d="M1860 775 c0 -58 20 -79 21 -22 l0 32 16 -32 c26 -51 43 -42 43 22 0
59 -17 76 -22 23 l-3 -33 -18 33 c-25 47 -37 40 -37 -23z"/>
<path d="M1965 775 c0 -48 2 -55 20 -55 18 0 20 7 20 55 0 48 -2 55 -20 55
-18 0 -20 -7 -20 -55z"/>
<path d="M2037 823 c-11 -10 -8 -91 3 -98 6 -4 23 -8 39 -10 28 -4 28 -3 24
43 -3 26 -6 53 -8 60 -5 13 -47 17 -58 5z m40 -29 c3 -9 0 -20 -7 -24 -7 -4
-9 -13 -6 -19 4 -6 2 -11 -3 -11 -6 0 -11 16 -11 35 0 36 16 47 27 19z"/>
<path d="M2130 780 c0 -57 23 -80 60 -60 16 8 20 21 20 60 0 61 -18 67 -22 8
-2 -30 -8 -43 -18 -43 -10 0 -16 13 -18 43 -4 59 -22 53 -22 -8z"/>
<path d="M2240 775 l0 -55 40 0 c22 0 40 5 40 10 0 6 -11 10 -25 10 -16 0 -25
6 -25 15 0 8 7 15 15 15 8 0 15 5 15 10 0 6 -7 10 -15 10 -8 0 -15 5 -15 10 0
6 11 10 25 10 14 0 25 5 25 10 0 6 -18 10 -40 10 l-40 0 0 -55z"/>
<path d="M0 750 l0 -70 115 0 116 0 -3 68 -3 67 -112 3 -113 3 0 -71z"/>
<path d="M617 799 c24 -7 30 -13 26 -29 -6 -22 -18 -26 -28 -10 -11 18 -25 11
-25 -12 0 -17 -3 -19 -12 -10 -18 18 -28 15 -28 -8 0 -14 -6 -20 -17 -18 -14
2 -17 -3 -15 -21 1 -17 -2 -22 -13 -18 -17 7 -30 -9 -15 -18 15 -9 12 -25 -5
-25 -18 0 -20 -26 -2 -33 8 -3 6 -9 -7 -19 -18 -14 -18 -15 5 -21 19 -5 21 -9
11 -19 -16 -16 -15 -28 3 -28 12 0 14 -7 9 -26 -6 -24 -5 -26 16 -19 19 6 21
4 15 -14 -5 -18 -3 -21 17 -19 17 2 22 -1 20 -14 -3 -21 9 -23 26 -6 10 10 14
8 18 -10 7 -24 20 -29 27 -9 4 8 6 6 6 -4 1 -10 -12 -20 -31 -27 -29 -9 -23
-10 47 -10 72 0 77 1 50 11 -21 8 -30 18 -27 30 4 19 17 23 27 7 11 -18 25
-11 25 12 0 17 3 19 12 10 18 -18 28 -15 28 8 0 14 6 20 18 18 12 -2 16 3 15
20 -2 17 2 22 19 22 17 0 19 3 10 12 -16 16 -15 28 3 28 18 0 20 26 3 34 -9 3
-8 8 5 16 9 6 15 16 12 21 -4 5 -10 7 -15 4 -5 -3 -11 -1 -14 4 -4 5 -2 12 4
16 15 9 12 25 -5 25 -12 0 -14 7 -9 26 6 24 5 26 -16 19 -19 -6 -21 -4 -15 15
6 18 3 21 -17 18 -17 -2 -22 1 -20 15 3 20 -9 22 -26 5 -10 -10 -14 -8 -18 10
-7 24 -20 29 -27 10 -3 -8 -6 -6 -6 4 -1 11 10 21 32 27 26 8 18 9 -48 9 -65
0 -74 -2 -48 -9z m148 -93 c22 -17 34 -34 31 -43 -3 -8 -2 -11 4 -8 5 3 14
-13 21 -35 10 -31 10 -49 0 -80 -7 -22 -16 -38 -20 -35 -5 2 -8 -3 -7 -13 0
-9 -5 -16 -11 -15 -7 2 -12 -2 -10 -8 5 -23 -66 -50 -120 -46 -58 4 -129 48
-119 74 3 8 2 11 -4 8 -5 -3 -14 13 -21 35 -14 46 3 126 23 114 7 -5 8 -2 4 5
-5 7 0 21 11 33 49 56 154 62 218 14z"/>
<path d="M643 670 c-5 -17 -8 -18 -21 -8 -13 11 -14 10 -3 -9 10 -20 9 -23 -7
-23 -11 0 -26 -7 -33 -17 -13 -15 -12 -15 9 -4 30 16 52 8 52 -19 0 -15 7 -20
25 -20 18 0 25 5 25 20 0 26 22 35 52 20 22 -11 22 -10 4 4 -11 9 -26 16 -33
16 -11 0 -11 4 -2 23 11 19 10 20 -3 9 -13 -10 -16 -9 -21 8 -3 11 -13 20 -22
20 -9 0 -19 -9 -22 -20z m31 -12 c-3 -4 -9 -8 -15 -8 -5 0 -9 4 -9 8 0 5 7 9
15 9 8 0 12 -4 9 -9z"/>
<path d="M660 550 l35 -7 -32 -2 c-18 0 -33 -5 -33 -10 0 -24 14 -41 35 -41
23 0 35 17 35 51 0 16 -7 19 -37 18 l-38 -2 35 -7z m23 -27 c-7 -2 -21 -2 -30
0 -10 3 -4 5 12 5 17 0 24 -2 18 -5z m-6 -19 c-3 -3 -12 -4 -19 -1 -8 3 -5 6
6 6 11 1 17 -2 13 -5z"/>
<path d="M600 541 c0 -5 -3 -17 -7 -27 -4 -11 -3 -15 4 -11 14 9 24 47 12 47
-5 0 -9 -4 -9 -9z"/>
<path d="M718 525 c2 -14 8 -25 12 -25 4 0 5 11 2 25 -2 14 -8 25 -12 25 -4 0
-5 -11 -2 -25z"/>
<path d="M457 779 c-4 -15 -11 -20 -23 -15 -14 5 -15 4 -4 -9 7 -9 9 -22 4
-32 -4 -10 -8 -22 -9 -28 0 -5 -7 -20 -13 -33 -7 -12 -11 -26 -8 -30 3 -5 -1
-20 -8 -34 -11 -20 -11 -25 0 -25 8 0 15 5 15 11 2 14 5 29 8 36 2 3 4 14 6
25 9 49 12 59 23 63 6 2 9 9 6 17 -3 7 0 16 5 20 6 3 9 10 6 15 -3 5 -1 11 5
15 12 8 13 25 1 25 -5 0 -11 -10 -14 -21z"/>
<path d="M850 791 c0 -6 5 -13 10 -16 6 -4 8 -10 5 -15 -3 -5 0 -12 6 -15 5
-4 8 -13 5 -20 -3 -8 0 -15 6 -17 11 -4 14 -14 23 -63 2 -11 4 -22 6 -25 3 -7
6 -22 8 -36 0 -6 7 -11 15 -11 11 0 11 5 0 25 -7 14 -11 29 -8 34 3 4 -1 18
-8 30 -6 13 -13 28 -13 33 -1 6 -5 18 -9 28 -5 10 -3 23 4 32 11 13 10 14 -4
9 -12 -5 -19 0 -23 15 -5 21 -23 30 -23 12z"/>
<path d="M491 764 c0 -11 3 -14 6 -6 3 7 2 16 -1 19 -3 4 -6 -2 -5 -13z"/>
<path d="M831 764 c0 -11 3 -14 6 -6 3 7 2 16 -1 19 -3 4 -6 -2 -5 -13z"/>
<path d="M1675 680 c-3 -5 -2 -10 4 -10 5 0 13 5 16 10 3 6 2 10 -4 10 -5 0
-13 -4 -16 -10z"/>
<path d="M1241 646 c-7 -8 -11 -31 -9 -52 6 -71 70 -73 76 -2 5 54 -39 88 -67
54z m39 -51 c0 -19 -4 -35 -10 -35 -5 0 -10 16 -10 35 0 19 5 35 10 35 6 0 10
-16 10 -35z"/>
<path d="M1096 598 c2 -58 23 -81 25 -26 l1 33 9 -32 c13 -43 25 -42 37 5 l10
37 1 -37 c2 -60 21 -44 21 17 0 43 -3 55 -15 55 -9 0 -18 -8 -21 -17 -15 -46
-17 -47 -26 -15 -5 20 -15 32 -26 32 -14 0 -17 -9 -16 -52z"/>
<path d="M1340 595 c0 -30 5 -55 10 -55 6 0 10 15 10 33 l0 32 21 -32 c12 -18
25 -33 30 -33 5 0 9 25 9 55 0 57 -16 76 -22 28 l-4 -28 -14 28 c-23 46 -40
34 -40 -28z"/>
<path d="M1440 640 c0 -5 4 -10 9 -10 6 0 11 -19 13 -42 4 -59 28 -63 28 -4 0
34 4 46 15 46 8 0 15 5 15 10 0 6 -18 10 -40 10 -22 0 -40 -4 -40 -10z"/>
<path d="M1532 599 c3 -56 28 -84 28 -32 l1 28 15 -27 c8 -16 22 -28 30 -28
10 0 12 4 7 13 -4 6 -8 30 -8 52 0 39 -1 40 -38 43 l-38 3 3 -52z m56 23 c2
-7 -3 -12 -12 -12 -9 0 -16 7 -16 16 0 17 22 14 28 -4z"/>
<path d="M1640 595 l0 -55 40 0 c45 0 55 17 13 22 -32 4 -44 28 -14 28 12 0
21 5 21 10 0 6 -9 10 -20 10 -11 0 -20 5 -20 10 0 6 11 10 24 10 14 0 28 5 31
10 4 6 -10 10 -34 10 l-41 0 0 -55z"/>
<path d="M1755 638 c-22 -73 -26 -90 -20 -96 4 -4 10 -1 12 6 6 15 35 16 51 0
20 -20 22 -3 7 50 -15 50 -40 70 -50 40z m25 -39 c0 -11 -4 -18 -10 -14 -5 3
-7 12 -3 20 7 21 13 19 13 -6z"/>
<path d="M1840 595 l0 -55 35 0 c39 0 48 17 13 22 -19 2 -24 10 -26 46 -5 61
-22 52 -22 -13z"/>
<path d="M425 560 c-4 -6 -11 -8 -16 -5 -5 4 -9 -5 -9 -18 0 -21 -4 -24 -22
-21 -13 2 -16 1 -8 -2 8 -4 24 -14 34 -23 18 -15 19 -15 13 14 -3 20 0 36 10
48 9 9 13 17 10 17 -3 0 -9 -5 -12 -10z"/>
<path d="M902 555 c11 -13 14 -30 11 -50 -6 -29 -5 -29 13 -14 10 9 26 19 34
23 8 3 5 4 -7 2 -19 -3 -23 0 -23 22 0 14 -3 22 -7 19 -3 -4 -13 -1 -22 5 -13
11 -13 9 1 -7z"/>
<path d="M0 470 l0 -71 113 3 112 3 3 68 3 67 -116 0 -115 0 0 -70z"/>
<path d="M414 458 c-3 -4 0 -8 5 -8 6 0 10 -3 9 -7 -5 -24 48 -90 61 -78 3 4
1 9 -5 13 -18 13 -46 64 -41 76 6 14 -21 18 -29 4z"/>
<path d="M887 454 c5 -12 -23 -63 -41 -76 -6 -4 -8 -9 -5 -13 8 -7 44 26 54
50 14 35 15 52 1 52 -8 0 -12 -6 -9 -13z"/>
<path d="M471 443 c7 -12 15 -20 18 -17 3 2 -3 12 -13 22 -17 16 -18 16 -5 -5z"/>
<path d="M850 445 c-7 -9 -11 -17 -9 -20 3 -2 10 5 17 15 14 24 10 26 -8 5z"/>
<path d="M375 440 c3 -5 8 -10 11 -10 2 0 4 5 4 10 0 6 -5 10 -11 10 -5 0 -7
-4 -4 -10z"/>
<path d="M475 337 c-14 -11 -15 -16 -5 -22 9 -5 11 -4 6 3 -11 18 21 15 49 -4
14 -9 22 -20 19 -25 -3 -5 1 -9 9 -9 8 0 26 -9 40 -20 14 -11 29 -20 33 -20 5
0 -8 12 -29 27 -20 14 -37 32 -37 40 0 8 -4 12 -9 9 -4 -3 -16 3 -26 14 -21
24 -25 24 -50 7z"/>
<path d="M805 330 c-10 -11 -22 -17 -26 -14 -5 3 -9 -1 -9 -9 0 -8 -17 -26
-37 -40 -21 -15 -34 -27 -29 -27 4 0 19 9 33 20 14 11 32 20 40 20 8 0 12 4 9
9 -3 5 5 16 19 25 28 19 60 22 49 4 -5 -7 -3 -8 6 -3 10 6 9 11 -5 22 -25 17
-29 17 -50 -7z"/>
<path d="M1172 290 c0 -41 1 -42 8 -15 4 17 8 25 9 19 0 -5 8 -19 16 -30 13
-18 14 -16 14 21 -1 35 -2 37 -9 15 -4 -14 -8 -20 -9 -14 -1 5 -8 19 -16 30
-13 18 -14 16 -13 -26z"/>
<path d="M1250 290 c0 -22 3 -40 8 -40 4 0 6 18 4 40 -2 22 -6 40 -8 40 -2 0
-4 -18 -4 -40z"/>
<path d="M1367 323 c-4 -3 -7 -21 -7 -40 0 -30 3 -33 28 -32 l27 0 -25 10
c-24 10 -24 11 -7 24 18 13 18 13 0 18 -15 3 -14 6 7 15 23 10 23 11 4 11 -11
1 -24 -2 -27 -6z"/>
<path d="M1437 324 c-11 -11 -8 -62 3 -69 6 -3 10 2 10 12 1 17 1 17 14 1 12
-16 13 -14 12 19 -1 36 -21 55 -39 37z m28 -13 c3 -5 1 -12 -5 -16 -5 -3 -10
1 -10 9 0 18 6 21 15 7z"/>
<path d="M1504 318 c-4 -6 2 -19 14 -29 28 -22 28 -32 1 -24 -15 5 -19 4 -15
-4 4 -6 13 -11 21 -11 23 0 28 20 11 39 -21 23 -20 32 1 24 11 -4 14 -3 9 5
-9 15 -33 15 -42 0z"/>
<path d="M1570 290 c0 -22 5 -40 10 -40 6 0 10 18 10 40 0 22 -4 40 -10 40 -5
0 -10 -18 -10 -40z"/>
<path d="M1618 318 c6 -7 12 -26 15 -43 4 -28 4 -27 6 7 0 20 7 39 14 41 6 3
-1 6 -17 6 -22 1 -26 -2 -18 -11z"/>
<path d="M1674 316 c-12 -31 0 -61 26 -63 14 -1 18 0 8 3 -21 6 -24 30 -5 37
10 4 10 6 0 6 -19 1 -16 19 5 24 12 4 11 5 -6 6 -12 0 -25 -5 -28 -13z"/>
<path d="M1090 298 c0 -32 15 -52 34 -45 11 4 15 17 14 39 l-1 33 -4 -32 c-5
-41 -23 -43 -23 -3 0 17 -4 30 -10 30 -5 0 -10 -10 -10 -22z"/>
<path d="M1290 313 c0 -6 5 -24 11 -40 l11 -28 15 34 c8 18 12 36 9 38 -3 3
-8 -8 -12 -23 l-7 -29 -13 30 c-7 17 -13 25 -14 18z"/>
<path d="M0 135 l0 -135 110 0 110 0 0 38 c0 20 3 81 7 135 l6 97 -116 0 -117
0 0 -135z"/>
<path d="M510 241 c0 -6 4 -12 8 -15 5 -3 9 1 9 9 0 8 -4 15 -9 15 -4 0 -8 -4
-8 -9z"/>
<path d="M836 225 c-3 -8 -1 -15 4 -15 6 0 10 7 10 15 0 8 -2 15 -4 15 -2 0
-6 -7 -10 -15z"/>
<path d="M647 219 c-9 -6 -22 -7 -29 -3 -7 4 -8 3 -4 -4 9 -15 -48 -44 -71
-36 -13 4 -15 3 -5 -4 11 -7 7 -12 -17 -20 -17 -6 -31 -14 -31 -18 0 -3 6 -4
14 -1 7 3 19 0 25 -6 9 -9 11 -8 6 5 -5 13 0 19 19 24 13 3 29 3 35 0 5 -4 13
-1 17 5 4 8 3 9 -4 5 -7 -4 -12 -3 -12 3 0 9 40 27 49 22 2 -2 9 5 14 15 9 16
11 16 24 -2 8 -10 17 -18 21 -17 13 5 42 -8 42 -18 0 -6 -5 -7 -12 -3 -6 4 -8
3 -5 -3 4 -6 17 -8 30 -6 14 3 31 -2 40 -12 10 -9 25 -15 35 -12 12 3 8 8 -16
17 -26 10 -31 15 -20 22 9 7 8 8 -6 4 -11 -4 -38 5 -70 23 -38 22 -55 27 -69
20z"/>
<path d="M445 210 c3 -5 11 -10 16 -10 6 0 7 5 4 10 -3 6 -11 10 -16 10 -6 0
-7 -4 -4 -10z"/>
<path d="M875 211 c-3 -5 -2 -12 3 -15 5 -3 9 1 9 9 0 17 -3 19 -12 6z"/>
<path d="M910 192 c0 -15 28 -23 36 -9 4 7 4 9 -1 5 -4 -4 -14 -3 -22 3 -8 7
-13 8 -13 1z"/>
<path d="M1090 165 c0 -32 3 -36 23 -33 17 2 22 10 22 33 0 23 -5 31 -22 33
-20 3 -23 -1 -23 -33z m40 0 c0 -16 -6 -25 -15 -25 -9 0 -15 9 -15 25 0 16 6
25 15 25 9 0 15 -9 15 -25z"/>
<path d="M1165 189 c-4 -6 -5 -12 -2 -15 2 -3 7 2 10 11 7 17 1 20 -8 4z"/>
<path d="M1203 165 c0 -22 2 -30 4 -17 2 12 2 30 0 40 -3 9 -5 -1 -4 -23z"/>
<path d="M1241 163 c1 -37 1 -38 9 -8 l7 30 7 -27 c12 -40 26 -34 25 10 -1 32
-2 34 -8 12 l-7 -25 -8 23 c-12 35 -26 26 -25 -15z"/>
<path d="M1315 180 c-9 -29 11 -59 35 -53 23 6 27 33 4 33 -8 0 -12 -4 -9 -10
3 -5 1 -10 -4 -10 -19 0 -12 48 7 53 13 4 12 5 -5 6 -13 1 -24 -6 -28 -19z"/>
<path d="M1390 165 c0 -32 2 -35 28 -34 23 2 24 2 5 6 -27 5 -30 20 -5 26 16
4 16 5 0 6 -10 0 -18 5 -18 10 0 5 8 12 18 14 13 4 11 5 -5 6 -20 1 -23 -4
-23 -34z"/>
<path d="M1461 163 c1 -38 1 -38 9 -8 4 17 8 25 9 19 0 -5 8 -19 16 -30 13
-18 14 -16 14 21 -1 33 -2 36 -8 15 l-7 -25 -8 23 c-12 35 -26 26 -25 -15z"/>
<path d="M1540 165 c0 -19 2 -35 4 -35 2 0 6 16 8 35 2 19 0 35 -4 35 -4 0 -8
-16 -8 -35z"/>
<path d="M1580 165 c0 -32 2 -35 28 -34 23 2 24 2 5 6 -27 5 -30 20 -5 26 16
4 16 5 0 6 -26 2 -22 19 5 24 19 4 18 4 -5 6 -26 1 -28 -2 -28 -34z"/>
<path d="M1651 163 c1 -21 3 -30 6 -20 6 21 12 22 27 1 10 -13 12 -10 13 20 1
32 -2 36 -23 36 -21 0 -24 -4 -23 -37z m39 17 c0 -5 -7 -10 -15 -10 -8 0 -15
5 -15 10 0 6 7 10 15 10 8 0 15 -4 15 -10z"/>
<path d="M1725 165 c0 -19 3 -35 8 -35 4 0 7 16 7 35 0 19 -3 35 -7 35 -5 0
-8 -16 -8 -35z"/>
<path d="M1770 165 c0 -30 3 -35 23 -34 16 1 18 2 5 6 -21 5 -23 19 -5 26 10
4 10 6 0 6 -19 1 -16 19 5 24 13 4 11 5 -5 6 -20 1 -23 -4 -23 -34z"/>
<path d="M371 174 c0 -11 3 -14 6 -6 3 7 2 16 -1 19 -3 4 -6 -2 -5 -13z"/>
<path d="M346 171 c-4 -7 -5 -15 -2 -18 9 -9 19 4 14 18 -4 11 -6 11 -12 0z"/>
<path d="M955 170 c-3 -5 -1 -10 4 -10 6 0 11 5 11 10 0 6 -2 10 -4 10 -3 0
-8 -4 -11 -10z"/>
<path d="M599 103 c-13 -16 -12 -17 4 -4 9 7 17 15 17 17 0 8 -8 3 -21 -13z"/>
<path d="M710 116 c0 -2 8 -10 18 -17 15 -13 16 -12 3 4 -13 16 -21 21 -21 13z"/>
</g>
</svg>
